<?xml version="1.0" encoding="UTF-8"?>
<svg width="1975px" height="1086px" viewBox="0 0 1975 1086" version="1.1" xmlns="http://www.w3.org/2000/svg" xmlns:xlink="http://www.w3.org/1999/xlink">
    <!-- Generator: Sketch 52.5 (67469) - http://www.bohemiancoding.com/sketch -->
    <title>weroes-logo-jan-19</title>
    <desc>Created with Sketch.</desc>
    <g id="Page-1" stroke="none" stroke-width="1" fill="none" fill-rule="evenodd">
        <g id="Artboard" transform="translate(-303.000000, -341.000000)">
            <g id="weroes-logo-jan-19" transform="translate(303.000000, 341.000000)">
                <path d="M1974.5,39.4343724 L1951.25081,131.032991 L1450.70469,131.032991 L1450.70469,196.857076 C1450.70469,215.107459 1457.15228,230.640557 1470.04766,243.456837 C1482.94303,256.273117 1498.1921,262.681161 1515.79531,262.681161 L1917.8364,262.681161 L1884.57813,393.714152 L1450.70469,393.714152 L1450.70469,459.538237 C1450.70469,477.378498 1457.15228,492.706539 1470.04766,505.522819 C1482.94303,518.339099 1498.1921,524.747143 1515.79531,524.747143 L1851.31986,524.747143 L1818,656.022802 L1974.5,656.022802 L1974.5,656.395313 L1608.82578,656.395313 C1547.8286,656.395313 1495.27561,634.402906 1451.16523,590.417433 C1407.05486,546.43196 1385,493.680943 1385,432.162799 L1385,262.681161 L1405.87813,262.681161 C1391.95931,237.458722 1385,206.392525 1385,169.481639 L1385,7.20916213e-13 L1974.5,7.57012677e-13 L1974.5,39.4343724 Z" id="Combined-Shape-Copy-2" fill="#D6A753"></path>
                <path d="M0,656.022802 L156.610251,656.022802 L123.29039,524.747143 L458.704688,524.747143 C476.307901,524.747143 491.556967,518.339099 504.452344,505.522819 C517.347721,492.706539 523.795312,477.378498 523.795312,459.538237 L523.795312,393.714152 L90.0321221,393.714152 L56.7738543,262.681161 L458.704688,262.681161 C476.307901,262.681161 491.556967,256.273117 504.452344,243.456837 C517.347721,230.640557 523.795312,215.107459 523.795312,196.857076 L523.795312,131.032991 L23.3594444,131.032991 L0,39 L0,-1.52482024e-13 L589.5,-1.88578489e-13 L589.5,169.481639 C589.5,206.392525 582.540695,237.458722 568.621875,262.681161 L589.5,262.681161 L589.5,432.162799 C589.5,493.680943 567.445142,546.43196 523.334766,590.417433 C479.224389,634.402906 426.671399,656.395312 365.674219,656.395312 L4.01926209e-14,656.395312 L4.01698112e-14,656.022802 Z M2.41080388e-14,393.714152 L1.60845821e-14,262.681161 L0,393.714152 Z" id="Combined-Shape-Copy" fill="#D6A753"></path>
                <path d="M567,0 L735.362888,0 L735.362888,673.958854 L819.93955,673.958854 C843.389272,673.958854 863.347583,665.662843 879.815084,649.070573 C896.282585,632.478302 904.516212,612.857579 904.516212,590.207813 L904.516212,0 L1072.8791,0 L1072.8791,673.958854 L1157.45576,673.958854 C1180.37852,673.958854 1200.07336,665.662843 1216.54086,649.070573 C1233.00836,632.478302 1241.24199,612.857579 1241.24199,590.207813 L1241.24199,0 L1410.39531,0 L1410.39531,470.507031 C1410.39531,548.991104 1382.1375,616.610176 1325.62104,673.366276 C1269.10458,730.122376 1201.32536,758.5 1122.28136,758.5 L904.516212,758.5 L904.516212,731.636458 C872.10817,749.545576 832.191547,758.5 784.765144,758.5 L567,758.5 L567,0 Z" id="W-Copy-3" fill="#40597D"></path>
                <path d="M223,916 L244.624828,916 L287.228966,1058.1938 L287.874483,1058.1938 L328.542069,916 L351.457931,916 L392.125517,1058.1938 L392.771034,1058.1938 L435.375172,916 L457,916 L403.422069,1082 L381.151724,1082 L340.161379,942.379845 L339.515862,942.379845 L298.848276,1082 L276.577931,1082 L223,916 Z M699,987 C698.786426,979.304309 697.451609,971.929383 694.995509,964.875 C692.539409,957.820617 689.068885,951.567962 684.583832,946.116848 C680.09878,940.665734 674.652727,936.283531 668.245509,932.970109 C661.838291,929.656686 654.576887,928 646.461078,928 C638.131695,928 630.763505,929.656686 624.356287,932.970109 C617.94907,936.283531 612.503016,940.665734 608.017964,946.116848 C603.532912,951.567962 599.955602,957.874058 597.285928,965.035326 C594.616254,972.196594 592.854296,979.518079 592,987 L699,987 Z M592.120112,1004.11927 C592.120112,1011.39759 593.13143,1018.94339 595.154097,1026.75688 C597.176763,1034.57038 600.423627,1041.58101 604.894786,1047.78899 C609.365944,1053.99697 615.008035,1059.13454 621.821229,1063.20183 C628.634422,1067.26913 636.831423,1069.30275 646.412476,1069.30275 C661.103425,1069.30275 672.600516,1065.44958 680.904096,1057.74312 C689.207675,1050.03666 694.956221,1039.76153 698.149906,1026.91743 L718.270017,1026.91743 C714.011771,1045.75545 706.187362,1060.31188 694.796554,1070.58716 C683.405746,1080.86244 667.277881,1086 646.412476,1086 C633.424826,1086 622.193871,1083.6988 612.719273,1079.09633 C603.244676,1074.49386 595.526721,1068.17894 589.565177,1060.15138 C583.603632,1052.12381 579.185768,1042.81198 576.311452,1032.2156 C573.437136,1021.61921 572,1010.43431 572,998.66055 C572,987.743065 573.437136,977.039808 576.311452,966.550459 C579.185768,956.06111 583.603632,946.69576 589.565177,938.454128 C595.526721,930.212497 603.244676,923.576478 612.719273,918.545872 C622.193871,913.515265 633.424826,911 646.412476,911 C659.613039,911 670.897221,913.675814 680.265362,919.027523 C689.633503,924.379232 697.245004,931.389865 703.100092,940.059633 C708.95518,948.729401 713.160135,958.68343 715.715082,969.922018 C718.27003,981.160607 719.334576,992.559575 718.908751,1004.11927 L592.120112,1004.11927 Z M847,916.325621 L865.878431,916.325621 L865.878431,955.175621 L866.529412,955.175621 C871.737281,941.69043 879.820207,931.309128 890.778431,924.031406 C901.736656,916.753684 914.810382,913.435949 930,914.0781 L930,934.305786 C920.669234,933.877685 912.206574,935.108458 904.611765,937.998142 C897.016955,940.887825 890.452969,945.008239 884.919608,950.359505 C879.386247,955.710772 875.100669,962.078683 872.062745,969.463431 C869.024821,976.848178 867.505882,984.928469 867.505882,993.704546 L867.505882,1082 L847,1082 L847,916.325621 Z M1115,929 C1105.38669,929 1096.94847,931.029525 1089.68508,935.088636 C1082.42169,939.147748 1076.38676,944.488603 1071.58011,951.111364 C1066.77346,957.734124 1063.14182,965.264731 1060.68508,973.703409 C1058.22835,982.142088 1057,990.740865 1057,999.5 C1057,1008.25913 1058.22835,1016.85791 1060.68508,1025.29659 C1063.14182,1033.73527 1066.77346,1041.26588 1071.58011,1047.88864 C1076.38676,1054.5114 1082.42169,1059.85225 1089.68508,1063.91136 C1096.94847,1067.97047 1105.38669,1070 1115,1070 C1124.61331,1070 1133.05153,1067.97047 1140.31492,1063.91136 C1147.57831,1059.85225 1153.61324,1054.5114 1158.41989,1047.88864 C1163.22654,1041.26588 1166.85818,1033.73527 1169.31492,1025.29659 C1171.77165,1016.85791 1173,1008.25913 1173,999.5 C1173,990.740865 1171.77165,982.142088 1169.31492,973.703409 C1166.85818,965.264731 1163.22654,957.734124 1158.41989,951.111364 C1153.61324,944.488603 1147.57831,939.147748 1140.31492,935.088636 C1133.05153,931.029525 1124.61331,929 1115,929 Z M1115,911 C1127.73504,911 1139.01293,913.354717 1148.83402,918.06422 C1158.6551,922.773724 1166.91117,929.088645 1173.60246,937.009174 C1180.29375,944.929703 1185.3661,954.18802 1188.81967,964.784404 C1192.27324,975.380787 1194,986.672723 1194,998.66055 C1194,1010.64838 1192.27324,1021.94031 1188.81967,1032.5367 C1185.3661,1043.13308 1180.29375,1052.3914 1173.60246,1060.31193 C1166.91117,1068.23246 1158.6551,1074.49386 1148.83402,1079.09633 C1139.01293,1083.6988 1127.73504,1086 1115,1086 C1102.26496,1086 1090.98707,1083.6988 1081.16598,1079.09633 C1071.3449,1074.49386 1063.08883,1068.23246 1056.39754,1060.31193 C1049.70625,1052.3914 1044.6339,1043.13308 1041.18033,1032.5367 C1037.72676,1021.94031 1036,1010.64838 1036,998.66055 C1036,986.672723 1037.72676,975.380787 1041.18033,964.784404 C1044.6339,954.18802 1049.70625,944.929703 1056.39754,937.009174 C1063.08883,929.088645 1071.3449,922.773724 1081.16598,918.06422 C1090.98707,913.354717 1102.26496,911 1115,911 Z M1445,987 C1444.78643,979.304309 1443.45161,971.929383 1440.99551,964.875 C1438.53941,957.820617 1435.06888,951.567962 1430.58383,946.116848 C1426.09878,940.665734 1420.65273,936.283531 1414.24551,932.970109 C1407.83829,929.656686 1400.57689,928 1392.46108,928 C1384.13169,928 1376.76351,929.656686 1370.35629,932.970109 C1363.94907,936.283531 1358.50302,940.665734 1354.01796,946.116848 C1349.53291,951.567962 1345.9556,957.874058 1343.28593,965.035326 C1340.61625,972.196594 1338.8543,979.518079 1338,987 L1445,987 Z M1337.12011,1004.11927 C1337.12011,1011.39759 1338.13143,1018.94339 1340.1541,1026.75688 C1342.17676,1034.57038 1345.42363,1041.58101 1349.89479,1047.78899 C1354.36594,1053.99697 1360.00804,1059.13454 1366.82123,1063.20183 C1373.63442,1067.26913 1381.83142,1069.30275 1391.41248,1069.30275 C1406.10342,1069.30275 1417.60052,1065.44958 1425.9041,1057.74312 C1434.20768,1050.03666 1439.95622,1039.76153 1443.14991,1026.91743 L1463.27002,1026.91743 C1459.01177,1045.75545 1451.18736,1060.31188 1439.79655,1070.58716 C1428.40575,1080.86244 1412.27788,1086 1391.41248,1086 C1378.42483,1086 1367.19387,1083.6988 1357.71927,1079.09633 C1348.24468,1074.49386 1340.52672,1068.17894 1334.56518,1060.15138 C1328.60363,1052.12381 1324.18577,1042.81198 1321.31145,1032.2156 C1318.43714,1021.61921 1317,1010.43431 1317,998.66055 C1317,987.743065 1318.43714,977.039808 1321.31145,966.550459 C1324.18577,956.06111 1328.60363,946.69576 1334.56518,938.454128 C1340.52672,930.212497 1348.24468,923.576478 1357.71927,918.545872 C1367.19387,913.515265 1378.42483,911 1391.41248,911 C1404.61304,911 1415.89722,913.675814 1425.26536,919.027523 C1434.6335,924.379232 1442.245,931.389865 1448.10009,940.059633 C1453.95518,948.729401 1458.16013,958.68343 1460.71508,969.922018 C1463.27003,981.160607 1464.33458,992.559575 1463.90875,1004.11927 L1337.12011,1004.11927 Z M1693.90215,964.302752 C1693.68735,958.09477 1692.39858,952.689625 1690.0358,948.087156 C1687.67302,943.484686 1684.50479,939.68503 1680.53103,936.688073 C1676.55726,933.691117 1671.99287,931.496949 1666.83771,930.105505 C1661.68255,928.71406 1656.20528,928.018349 1650.40573,928.018349 C1645.89497,928.018349 1641.33057,928.499995 1636.71241,929.463303 C1632.09425,930.42661 1627.85205,932.032099 1623.98568,934.279817 C1620.11931,936.527534 1617.00479,939.47093 1614.642,943.110092 C1612.27922,946.749254 1611.09785,951.244622 1611.09785,956.59633 C1611.09785,961.091766 1612.22553,964.891422 1614.48091,967.995413 C1616.73629,971.099404 1619.58232,973.721702 1623.01909,975.862385 C1626.45586,978.003069 1630.21478,979.769106 1634.29594,981.16055 C1638.37711,982.551995 1642.13602,983.675837 1645.57279,984.53211 L1672.63723,990.633028 C1678.43678,991.489301 1684.18255,993.041273 1689.8747,995.288991 C1695.56685,997.536708 1700.61454,1000.4801 1705.0179,1004.11927 C1709.42126,1007.75843 1713.01908,1012.2538 1715.81146,1017.6055 C1718.60383,1022.95721 1720,1029.27213 1720,1036.55046 C1720,1045.54133 1717.95945,1053.19416 1713.87828,1059.50917 C1709.79712,1065.82419 1704.58834,1070.96175 1698.25179,1074.92202 C1691.91524,1078.88228 1684.77331,1081.71865 1676.82578,1083.43119 C1668.87824,1085.14374 1661.03822,1086 1653.30549,1086 C1633.75885,1086 1617.91772,1081.3976 1605.78162,1072.19266 C1593.64552,1062.98772 1586.71839,1048.21723 1585,1027.88073 L1605.29833,1027.88073 C1606.15752,1041.58111 1611.15151,1051.90975 1620.28043,1058.86697 C1629.40935,1065.82419 1640.73979,1069.30275 1654.27208,1069.30275 C1659.21244,1069.30275 1664.31382,1068.76759 1669.57637,1067.69725 C1674.83893,1066.62691 1679.72551,1064.80735 1684.23628,1062.23853 C1688.74704,1059.66971 1692.45225,1056.40522 1695.35203,1052.44495 C1698.2518,1048.48469 1699.70167,1043.61471 1699.70167,1037.83486 C1699.70167,1032.91129 1698.68139,1028.79054 1696.64081,1025.47248 C1694.60023,1022.15442 1691.86159,1019.37157 1688.42482,1017.12385 C1684.98805,1014.87614 1681.06804,1013.00307 1676.66468,1011.50459 C1672.26131,1010.00611 1667.80432,1008.72172 1663.29356,1007.65138 L1637.1957,1001.87156 C1630.53696,1000.15901 1624.4153,998.17891 1618.83055,995.931193 C1613.2458,993.683475 1608.35921,990.900628 1604.17064,987.582569 C1599.98208,984.264509 1596.70646,980.197272 1594.34368,975.380734 C1591.9809,970.564196 1590.79952,964.623889 1590.79952,957.559633 C1590.79952,949.210967 1592.67898,942.039785 1596.43795,936.045872 C1600.19692,930.051958 1605.0835,925.235492 1611.09785,921.59633 C1617.1122,917.957168 1623.82455,915.281354 1631.23508,913.568807 C1638.64562,911.856261 1646.00235,911 1653.30549,911 C1661.68262,911 1669.46894,912.070326 1676.66468,914.211009 C1683.86042,916.351693 1690.19687,919.669702 1695.67422,924.165138 C1701.15158,928.660573 1705.50118,934.226267 1708.72315,940.862385 C1711.94512,947.498504 1713.77088,955.311882 1714.20048,964.302752 L1693.90215,964.302752 Z" id="weroes-copy" fill="#40597D"></path>
            </g>
        </g>
    </g>
</svg>